<!-- <svg viewBox="0 0 128 128">
<g><defs><path id="a" d="M18.8 1h90.5v126h-90.5z"></path></defs><clipPath id="b"><use xlink:href="#a" overflow="visible"></use></clipPath><path fill-rule="evenodd" clip-rule="evenodd" fill="#F6D2A2" d="M21.1 68.7c.2 3.5 3.7 1.9 5.3.8 1.5-1.1 2-.2 2.1-2.3.1-1.4.2-2.7.2-4.1-2.3-.2-4.8.3-6.7 1.7-.9.7-2.8 3-.9 3.9" clip-path="url(#b)"></path><path d="M23 71.2c-.7 0-2-.3-2.2-2.3-.6-.4-.8-.9-.8-1.2-.1-1.2 1.2-2.6 1.9-3.1 1.6-1.2 3.7-1.8 5.9-1.8h1.3v.3c.1 1.1 0 2.2-.1 3.2 0 .3 0 .6-.1.9-.1 1.5-.4 1.7-1.1 2-.3.1-.6.2-1.1.6-.5.3-2.2 1.4-3.7 1.4zm4.8-7.8c-2.1 0-4 .6-5.5 1.7-.7.5-1.7 1.7-1.6 2.5 0 .3.2.6.6.8l.2.1v.2c.1 1.6.9 1.8 1.5 1.8 1 0 2.4-.7 3.3-1.3.6-.4 1-.5 1.3-.6.5-.2.6-.2.7-1.4 0-.3 0-.6.1-.9.1-.9.1-1.9.1-2.8-.3-.1-.5-.1-.7-.1z" clip-path="url(#b)"></path><path fill-rule="evenodd" clip-rule="evenodd" fill="#C6B198" d="M21.1 68.7c.5-.2 1.1-.3 1.4-.8" clip-path="url(#b)"></path><path d="M21.1 69c-.1 0-.3-.1-.3-.2-.1-.2 0-.4.2-.4.1 0 .2-.1.2-.1.4-.2.8-.3 1-.6.1-.1.3-.2.5-.1.1.1.2.3.1.5-.4.5-.9.7-1.3.8l-.2.1h-.2z" clip-path="url(#b)"></path><path fill-rule="evenodd" clip-rule="evenodd" fill="#6AD7E5" d="M29.3 26.4c-13.6-3.8-3.5-21.1 7.4-14l-7.4 14z" clip-path="url(#b)"></path><path d="M29.5 26.8l-.3-.1c-7-2-6.9-7-6.7-8.5.5-3.8 4.1-7.8 8.9-7.8 1.9 0 3.7.6 5.5 1.8l.3.2-7.7 14.4zm1.9-15.7c-4.5 0-7.8 3.7-8.3 7.2-.5 3.6 1.7 6.4 6 7.7l7.1-13.5c-1.5-.9-3.1-1.4-4.8-1.4z" clip-path="url(#b)"></path><path fill-rule="evenodd" clip-rule="evenodd" fill="#6AD7E5" d="M89.6 11.1c10.7-7.5 20.5 9.5 8 13.8l-8-13.8z" clip-path="url(#b)"></path><path d="M97.5 25.3l-8.3-14.3.3-.2c1.9-1.3 3.8-2 5.7-2 4.6 0 7.9 3.8 8.6 7.5.3 1.5.6 6.6-6 8.8l-.3.2zm-7.4-14l7.7 13.3c3.9-1.4 5.9-4.4 5.3-8-.6-3.4-3.7-6.9-7.9-6.9-1.7-.1-3.4.4-5.1 1.6z" clip-path="url(#b)"></path><path fill-rule="evenodd" clip-rule="evenodd" fill="#F6D2A2" d="M92 112.3c2.7 1.7 7.7 6.8 3.6 9.3-3.9 3.6-6.1-4-9.6-5 1.5-2 3.4-3.9 6-4.3" clip-path="url(#b)"></path><path d="M93.5 122.9c-1.6 0-3-1.6-4.2-3.1-1.1-1.2-2.2-2.5-3.4-2.9l-.5-.1.3-.4c1.2-1.7 3.2-3.9 6.2-4.4h.1l.1.1c1.7 1.1 5.4 4.2 5.3 7.1 0 1.1-.6 2-1.7 2.7-.7.7-1.4 1-2.2 1zm-7-6.5c1.2.5 2.2 1.8 3.2 2.9 1.2 1.5 2.4 2.8 3.7 2.8.6 0 1.2-.3 1.8-.9h.1c.9-.6 1.4-1.3 1.4-2.2 0-2.3-2.9-5.2-4.9-6.5-1.8.5-3.6 1.7-5.3 3.9zM95.6 121.9c-.1 0-.2-.1-.3-.2-.2-.4-.4-.9-.5-1.3-.3-.8-.6-1.6-1.2-2.2-.1-.1-.1-.3 0-.5.1-.1.3-.1.5 0 .7.7 1.1 1.6 1.4 2.5l.5 1.2c.1.2 0 .4-.1.5h-.3z" clip-path="url(#b)"></path><path fill-rule="evenodd" clip-rule="evenodd" fill="#F6D2A2" d="M43.2 118.1c-3.2.5-5 3.4-7.7 4.9-2.5 1.5-3.5-.5-3.7-.9-.4-.2-.4.2-1-.4-2.3-3.7 2.4-6.4 4.9-8.2 3.5-.8 5.7 2.2 7.5 4.6" clip-path="url(#b)"></path><path d="M33.8 123.8c-1.3 0-2-1.1-2.2-1.5h-.1c-.3 0-.5-.1-.9-.5v-.1c-2.2-3.5 1.6-6.2 4.1-8l.9-.6h.2c.4-.1.7-.1 1.1-.1 3 0 4.9 2.6 6.5 4.7l.5.7-.6.1c-1.9.3-3.3 1.5-4.7 2.7-.9.8-1.8 1.5-2.8 2.1-.8.3-1.4.5-2 .5zm-2.2-2.1c.1 0 .2 0 .4.1h.1l.1.1c.2.3.7 1.2 1.7 1.2.5 0 1-.2 1.5-.5 1-.5 1.9-1.3 2.7-2 1.3-1.1 2.7-2.3 4.5-2.8-1.5-2-3.3-4.2-5.8-4.2-.3 0-.6 0-.9.1l-.8.6c-2.6 1.8-5.8 4.1-3.9 7.1.1.2.2.3.4.3zM31.8 122.4c-.2 0-.4-.2-.3-.4.1-1 .6-1.7 1.1-2.5.3-.4.5-.8.7-1.2.1-.2.3-.2.4-.2.2.1.2.3.2.4-.2.5-.5.9-.8 1.3-.5.7-.9 1.3-1 2.1 0 .4-.1.5-.3.5z" clip-path="url(#b)"></path><path fill-rule="evenodd" clip-rule="evenodd" d="M29.9 21.7c-1.8-.9-3.1-2.2-2-4.3 1-1.9 2.9-1.7 4.7-.8l-2.7 5.1zM94.8 19.9c1.8-.9 3.1-2.2 2-4.3-1-1.9-2.9-1.7-4.7-.8l2.7 5.1z" clip-path="url(#b)"></path><path fill-rule="evenodd" clip-rule="evenodd" fill="#F6D2A2" d="M107.1 68.2c-.2 3.5-3.7 1.9-5.3.8-1.5-1.1-2-.2-2.1-2.3-.1-1.4-.2-2.7-.2-4.1 2.3-.2 4.8.3 6.7 1.7 1 .8 2.8 3 .9 3.9" clip-path="url(#b)"></path><path d="M105.3 70.7c-1.5 0-3.2-1.1-3.7-1.4-.5-.3-.8-.5-1.1-.6-.8-.3-1-.5-1.1-2 0-.3 0-.6-.1-.9-.1-1-.2-2.1-.1-3.2v-.3h1.3c2.2 0 4.3.6 5.9 1.8.7.5 2 1.9 1.9 3.1 0 .4-.2.9-.8 1.2-.2 2-1.5 2.3-2.2 2.3zm-5.5-7.7c0 .9 0 1.9.1 2.8 0 .3 0 .6.1.9.1 1.2.2 1.2.7 1.4.3.1.7.3 1.3.6.9.6 2.3 1.3 3.3 1.3.6 0 1.4-.2 1.5-1.8v-.2l.2-.1c.4-.2.6-.4.6-.8.1-.8-.9-2-1.6-2.5-1.5-1.1-3.5-1.7-5.5-1.7-.2.1-.4.1-.7.1z" clip-path="url(#b)"></path><path fill-rule="evenodd" clip-rule="evenodd" fill="#C6B198" d="M107.1 68.2c-.5-.2-1.1-.3-1.4-.8" clip-path="url(#b)"></path><path d="M107.1 68.6h-.1l-.2-.1c-.5-.2-1-.3-1.3-.8-.1-.1-.1-.4.1-.5.1-.1.4-.1.5.1.2.3.6.4 1 .6.1 0 .2.1.2.1.2.1.3.3.2.4-.1.1-.3.2-.4.2z" clip-path="url(#b)"></path><path fill-rule="evenodd" clip-rule="evenodd" fill="#6AD7E5" d="M62.8 4c13.6 0 26.3 1.9 33 15 6 14.6 3.8 30.4 4.8 45.9.8 13.3 2.5 28.6-3.6 40.9-6.5 12.9-22.7 16.2-36 15.7-10.5-.4-23.1-3.8-29.1-13.4-6.9-11.2-3.7-27.9-3.2-40.4.6-14.8-4-29.7.9-44.1 4.9-15.1 18.5-18.5 33.2-19.6" clip-path="url(#b)"></path><path d="M63.3 121.9h-2.5c-4.1-.1-10.3-.8-16.4-3.3-5.9-2.4-10.2-5.8-13-10.3-5.6-9.1-4.6-21.6-3.7-32.7.2-2.8.4-5.4.5-7.9.2-5.2-.2-10.6-.7-15.7-.8-9.4-1.6-19.1 1.5-28.5 2.4-7 6.7-12 13.2-15.2 5.1-2.5 11.4-3.9 20.4-4.6 13.4-.1 26.7 1.8 33.4 15.1 4.4 10.7 4.4 22.2 4.5 33.3 0 4.2 0 8.5.3 12.7.1 1.3.2 2.6.2 3.9.8 12.2 1.7 26-3.9 37.2-2.8 5.7-7.7 9.9-14.4 12.6-5.4 2.2-12.2 3.4-19.4 3.4zm-.5-117.6c-14.1 1.1-27.9 4.2-33 19.4-3.1 9.3-2.3 18.9-1.5 28.2.4 5.2.9 10.5.7 15.8-.1 2.5-.3 5.1-.5 7.9-.9 11-1.9 23.4 3.6 32.3 2.3 3.7 9.7 12.5 28.8 13.2h2.5c22.1 0 30.3-9.8 33.3-15.6 5.5-11 4.6-24.8 3.9-36.9-.1-1.3-.2-2.6-.2-3.9-.2-4.2-.3-8.5-.3-12.7-.1-11-.1-22.5-4.4-33.1-3-5.9-7.5-9.9-13.7-12.2-6.4-2.1-13.6-2.4-19.2-2.4z" clip-path="url(#b)"></path><path fill-rule="evenodd" clip-rule="evenodd" fill="#fff" d="M65.2 22.2c2.4 14.2 25.6 10.4 22.3-3.9-3-12.8-23.1-9.2-22.3 3.9" clip-path="url(#b)"></path><path d="M76.2 31.5c-4.5 0-10.2-2.4-11.4-9.2-.2-3.2.8-6.1 2.9-8.3 2.3-2.5 5.8-3.9 9.4-3.9 4.2 0 9.2 2.2 10.6 8.3.8 3.4.2 6.4-1.7 8.8-2.1 2.6-5.8 4.3-9.8 4.3zm-10.7-9.3c.5 2.8 1.8 5 3.9 6.6 1.8 1.4 4.3 2.1 6.8 2.1 3.7 0 7.3-1.6 9.3-4.1 1.8-2.2 2.3-5.1 1.6-8.3-1.3-5.7-6-7.7-10-7.7-3.4 0-6.7 1.4-8.9 3.7-1.9 2-2.9 4.7-2.7 7.7z" clip-path="url(#b)"></path><path fill-rule="evenodd" clip-rule="evenodd" fill="#fff" d="M37.5 24.5c3.2 12.3 22.9 9.2 22.2-3.2-.9-14.8-25.3-12-22.2 3.2" clip-path="url(#b)"></path><path d="M48 32.7c-4.3 0-9.3-2.1-10.9-8.1-.7-3.5 0-6.7 2-9.1 2.2-2.7 5.8-4.3 9.7-4.3 5.2 0 10.7 3.1 11.1 10.1.2 2.9-.7 5.5-2.7 7.6-2.1 2.3-5.6 3.8-9.2 3.8zm.8-20.8c-3.7 0-7.1 1.5-9.2 4-1.9 2.3-2.5 5.2-1.8 8.5 1.4 5.6 6.2 7.6 10.2 7.6 3.4 0 6.7-1.3 8.8-3.6 1.8-1.9 2.7-4.4 2.5-7.1-.2-4.3-3.1-9.4-10.5-9.4z" clip-path="url(#b)"></path><path fill-rule="evenodd" clip-rule="evenodd" fill="#fff" d="M68 39.2c0 1.8.4 3.9.1 5.9-.5.9-1.4 1-2.2 1.3-1.1-.2-2-.9-2.5-1.9-.3-2.2.1-4.4.2-6.6l4.4 1.3z" clip-path="url(#b)"></path><path d="M65.9 46.8c-1.3-.2-2.3-1-2.8-2.1-.2-1.6-.1-3.1 0-4.6.1-.7.1-1.4.1-2.1v-.4l5.1 1.6v.2c0 .6.1 1.2.1 1.9.1 1.3.2 2.7 0 4v.1c-.4.8-1.1 1-1.8 1.3-.2-.1-.4 0-.7.1zm-2.2-2.4c.4.9 1.2 1.5 2.1 1.7.2-.1.4-.1.5-.2.6-.2 1.1-.4 1.4-.9.2-1.2.1-2.5 0-3.8 0-.6-.1-1.2-.1-1.7l-3.8-1.2c0 .6-.1 1.2-.1 1.7-.1 1.6-.2 3 0 4.4z" clip-path="url(#b)"></path><path fill-rule="evenodd" clip-rule="evenodd" d="M46.3 22.5c0 2-1.5 3.6-3.3 3.6-1.8 0-3.3-1.6-3.3-3.6s1.5-3.6 3.3-3.6c1.8 0 3.3 1.6 3.3 3.6" clip-path="url(#b)"></path><path fill-rule="evenodd" clip-rule="evenodd" fill="#fff" d="M45.2 23.3c0 .5-.4.9-.8.9s-.8-.4-.8-.9.4-.9.8-.9c.5 0 .8.4.8.9" clip-path="url(#b)"></path><path fill-rule="evenodd" clip-rule="evenodd" d="M74.2 21.6c0 2-1.5 3.6-3.3 3.6-1.8 0-3.3-1.6-3.3-3.6s1.5-3.6 3.3-3.6c1.8 0 3.3 1.6 3.3 3.6" clip-path="url(#b)"></path><path fill-rule="evenodd" clip-rule="evenodd" fill="#fff" d="M73.2 22.4c0 .5-.3.9-.8.9-.4 0-.8-.4-.8-.9s.3-.9.8-.9c.4 0 .8.4.8.9" clip-path="url(#b)"></path><path fill-rule="evenodd" clip-rule="evenodd" fill="#fff" d="M58.4 39c-1.5 3.5.8 10.6 4.8 5.4-.3-2.2.1-4.4.2-6.6l-5 1.2z" clip-path="url(#b)"></path><path d="M60.5 46.6c-.7 0-1.4-.4-1.9-1.2-1.1-1.6-1.3-4.6-.5-6.5l.1-.2 5.5-1.4v.4l-.1 2.2c-.1 1.5-.2 2.9 0 4.4v.1l-.1.1c-1 1.4-2 2.1-3 2.1zm-1.8-7.3c-.6 1.7-.4 4.4.5 5.7.4.6.8.9 1.3.9.7 0 1.5-.6 2.3-1.6-.2-1.5-.1-3 .1-4.4l.1-1.7-4.3 1.1z" clip-path="url(#b)"></path><path fill-rule="evenodd" clip-rule="evenodd" fill="#F6D2A2" d="M58.9 32.2c-2.7.2-4.9 3.5-3.5 6 1.9 3.4 6-.3 8.6 0 3 .1 5.4 3.2 7.8.6 2.7-2.9-1.2-5.7-4.1-7l-8.8.4z" clip-path="url(#b)"></path><path fill="#231F20" d="M69.7 40.2c-.9 0-1.8-.4-2.7-.8-.9-.4-1.9-.8-3-.8h-.3c-.8 0-1.7.3-2.7.7-1.1.4-2.2.7-3.2.7-1.2 0-2.1-.5-2.7-1.6-.7-1.2-.6-2.6.1-3.9.8-1.5 2.2-2.4 3.7-2.6l8.9-.4h.1c2.2.9 4.7 2.6 5.2 4.6.2 1-.1 2-.9 2.9-.8.9-1.6 1.2-2.5 1.2zm-5.6-2.2c1.1 0 2.2.5 3.2.9.9.4 1.7.7 2.5.7.7 0 1.3-.3 1.9-.9.7-.7.9-1.5.8-2.3-.4-1.7-2.8-3.3-4.7-4.1l-8.7.4c-1.3.1-2.5 1-3.2 2.2-.6 1.1-.6 2.3-.1 3.3.5.9 1.1 1.3 2.1 1.3.9 0 1.9-.4 2.9-.7 1.1-.4 2-.7 3-.7 0-.2.1-.2.3-.1z" clip-path="url(#b)"></path><path fill-rule="evenodd" clip-rule="evenodd" d="M58.6 32.1c-.2-4.7 8.8-5.3 9.8-1.4 1.1 4-9.4 4.9-9.8 1.4" clip-path="url(#b)"></path></g>
</svg>  -->
<svg viewBox="0 0 128 128">
<g fill="#00acd7" fill-rule="evenodd"><path d="M11.156 54.829c-.243 0-.303-.122-.182-.303l1.273-1.637c.12-.182.424-.303.666-.303H34.55c.243 0 .303.182.182.364l-1.03 1.576c-.121.181-.424.363-.606.363zM2.004 60.404c-.242 0-.303-.12-.182-.303l1.273-1.636c.121-.182.424-.303.667-.303h27.636c.242 0 .364.182.303.364l-.485 1.454c-.06.243-.303.364-.545.364zM16.67 65.98c-.242 0-.302-.182-.181-.364l.848-1.515c.122-.182.364-.363.607-.363h12.12c.243 0 .364.181.364.424l-.12 1.454c0 .243-.243.425-.425.425zM79.58 53.738c-3.819.97-6.425 1.697-10.182 2.666-.91.243-.97.303-1.758-.606-.909-1.03-1.576-1.697-2.848-2.303-3.819-1.878-7.516-1.333-10.97.91-4.121 2.666-6.242 6.605-6.182 11.514.06 4.849 3.394 8.849 8.182 9.516 4.121.545 7.576-.91 10.303-4 .545-.667 1.03-1.394 1.636-2.243H56.064c-1.272 0-1.575-.788-1.151-1.818.788-1.879 2.242-5.03 3.09-6.606.183-.364.607-.97 1.516-.97h22.06c-.12 1.637-.12 3.273-.363 4.91-.667 4.363-2.303 8.363-4.97 11.878-4.364 5.758-10.06 9.333-17.273 10.303-5.939.788-11.454-.364-16.302-4-4.485-3.394-7.03-7.879-7.697-13.454-.788-6.606 1.151-12.546 5.151-17.758 4.303-5.636 10-9.212 16.97-10.485 5.697-1.03 11.151-.363 16.06 2.97 3.212 2.121 5.515 5.03 7.03 8.545.364.546.122.849-.606 1.03z"></path><path d="M99.64 87.253c-5.515-.122-10.546-1.697-14.788-5.334-3.576-3.09-5.818-7.03-6.545-11.697-1.091-6.848.787-12.909 4.909-18.302 4.424-5.819 9.757-8.849 16.97-10.122 6.181-1.09 12-.484 17.272 3.091 4.788 3.273 7.757 7.697 8.545 13.515 1.03 8.182-1.333 14.849-6.97 20.546-4 4.06-8.909 6.606-14.545 7.757-1.636.303-3.273.364-4.848.546zm14.424-24.485c-.06-.788-.06-1.394-.182-2-1.09-6-6.606-9.394-12.363-8.06-5.637 1.272-9.273 4.848-10.606 10.545-1.091 4.727 1.212 9.515 5.575 11.454 3.334 1.455 6.667 1.273 9.879-.363 4.788-2.485 7.394-6.364 7.697-11.576z" fill-rule="nonzero"></path></g>
</svg> 